<svg width="512" height="512" xmlns="http://www.w3.org/2000/svg">

 <g>
  <title>background</title>
  <rect fill="none" id="canvas_background" height="514" width="514" y="-1" x="-1"/>
 </g>
 <g>
  <title>Layer 1</title>
  <path stroke="#ffffff" id="svg_2" fill="#ffffff" d="m422.891802,89.047153c-44.595265,-44.595265 -103.887438,-69.149787 -166.955559,-69.149787c-63.062696,0 -122.354869,24.554522 -166.944709,69.149787c-92.055044,92.060469 -92.049619,241.845224 0.005425,333.900268c44.595265,44.595265 103.887438,69.155213 166.950134,69.155213s122.354869,-24.554522 166.944709,-69.149787s69.155213,-103.882012 69.155213,-166.950134s-24.559947,-122.360294 -69.155213,-166.955559zm-7.671254,326.23444c-42.544534,42.544534 -99.113249,65.970612 -159.273455,65.970612s-116.734346,-23.431503 -159.27888,-65.976037c-87.823377,-87.823377 -87.823377,-230.728959 -0.005425,-318.557761c42.544534,-42.544534 99.113249,-65.970612 159.273455,-65.970612c60.171057,0 116.739771,23.426077 159.284306,65.970612c42.544534,42.549959 65.976037,99.113249 65.976037,159.27888s-23.431503,116.734346 -65.976037,159.284306z"/>
  <path stroke="#ffffff" id="svg_3" fill="#ffffff" d="m228.682606,150.484499c-2.772455,-2.772455 -7.253763,-2.772455 -10.026218,0s-2.772455,7.253763 0,10.026218l95.483067,95.483067l-95.490157,95.497248c-2.772455,2.772455 -2.772455,7.253763 0,10.026218c1.382682,1.382682 3.197896,2.077569 5.013109,2.077569s3.630427,-0.694886 5.013109,-2.077569l100.496176,-100.510357c2.772455,-2.772455 2.772455,-7.253763 0,-10.026218l-100.489085,-100.496176z"/>
 </g>
</svg>